<svg width="20" height="25" viewBox="0 0 20 25" fill="none" xmlns="http://www.w3.org/2000/svg">
<g clip-path="url(#clip0_23_607)">
<path d="M16.2686 13.1836C16.2686 13.2846 16.117 16.266 19.4016 17.8325C18.7952 19.7022 16.6729 23.8458 14.1968 23.8458C12.7819 23.8458 11.9734 22.9362 10.3564 22.9362C8.68884 22.9362 7.77927 23.8458 6.51597 23.8458C4.09044 23.9469 1.76597 19.399 1.10906 17.5293C0.603739 16.1144 0.401611 14.7501 0.401611 13.4362C0.401611 8.9389 3.38299 6.76603 6.21278 6.7155C7.57714 6.7155 9.29523 7.6756 10.0532 7.6756C10.7606 7.6756 12.7314 6.51337 14.5505 6.66496C16.4202 6.81656 17.8351 7.52401 18.7952 8.88837C17.1277 9.94954 16.2686 11.3139 16.2686 13.1836ZM13.4388 4.89635C12.4282 6.05858 11.2154 6.7155 9.90161 6.61443C9.80055 5.25007 10.3059 3.98677 11.2154 2.97613C12.0239 2.06656 13.4388 1.30858 14.6516 1.20752C14.6516 1.76337 14.8032 3.27933 13.4388 4.89635Z" fill="white"/>
</g>
<defs>
<clipPath id="clip0_23_607">
<rect width="19" height="24" fill="white" transform="translate(0.401611 0.669922)"/>
</clipPath>
</defs>
</svg>
