<svg width="25" height="24" viewBox="0 0 25 24" fill="none" xmlns="http://www.w3.org/2000/svg">
<path d="M8.62743 19C7.34939 19 6.30328 17.9575 6.30328 16.6795V8.32415C6.30328 7.04611 7.34939 6 8.62743 6H16.9828C18.2608 6 19.3033 7.04611 19.3033 8.32415V16.6795C19.3033 17.9575 18.2608 19 16.9828 19H8.62743ZM8.62743 18.0714H16.9828C17.7624 18.0714 18.3747 17.4592 18.3747 16.6795V8.32415C18.3747 7.54448 17.7624 6.92857 16.9828 6.92857H8.62743C7.84776 6.92857 7.23186 7.54448 7.23186 8.32415V16.6795C7.23186 17.4592 7.84776 18.0714 8.62743 18.0714ZM14.207 16.6858C13.9611 16.6802 13.7622 16.4837 13.7536 16.2379C13.7444 15.9821 13.944 15.7671 14.1998 15.7573L15.3523 15.7183L13.4045 13.736C13.2235 13.553 13.2259 13.2576 13.4099 13.0776C13.5932 12.8984 13.8872 12.9016 14.0665 13.0849L16.0016 15.0527L16.0388 13.9183C16.0486 13.6628 16.263 13.4634 16.5185 13.4721C16.7742 13.4805 16.975 13.6942 16.9673 13.95L16.8921 16.1626C16.8921 16.464 16.7458 16.6106 16.4441 16.6106C15.6992 16.6359 14.9501 16.6618 14.207 16.6858ZM11.5492 11.8807L9.60679 9.93827L9.56961 11.0836C9.55977 11.339 9.34535 11.5384 9.0899 11.5297C8.83415 11.5213 8.6334 11.3076 8.64103 11.0518L8.7163 8.83922C8.7163 8.5569 8.90806 8.39125 9.16426 8.39125L11.3769 8.31599C11.6323 8.30835 11.8459 8.50856 11.8548 8.76395C11.864 9.01975 11.6644 9.23473 11.4086 9.24456L10.2642 9.28264L12.2057 11.2241C12.3992 11.4176 12.3835 11.6992 12.2057 11.8834C12.0152 12.0739 11.7334 12.0649 11.5492 11.8807Z" fill="#33264C"/>
</svg>
