<svg width="25" height="24" viewBox="0 0 25 24" fill="none" xmlns="http://www.w3.org/2000/svg">
<path fill-rule="evenodd" clip-rule="evenodd" d="M6.41803 9.90832V7.4753C6.41803 6.66051 7.0786 6 7.91316 6C8.74772 6 9.41803 6.66051 9.41803 7.4753V8.13266C9.41803 8.40139 9.1949 8.61923 8.91965 8.61923C8.64441 8.61923 8.42127 8.40139 8.42127 8.13266V7.4753C8.42127 7.19796 8.19723 6.97314 7.91316 6.97314C7.62909 6.97314 7.41479 7.19796 7.41479 7.4753V9.90832H13.418C13.418 9.36869 13.8657 8.93124 14.418 8.93124H17.418C17.9703 8.93124 18.418 9.36869 18.418 9.90832H20.418C20.9703 9.90832 21.418 10.3458 21.418 10.8854V13.3281C21.418 15.1507 19.9587 16.6403 18.1194 16.7423L18.5531 17.166C18.7483 17.3568 18.7483 17.6661 18.5531 17.8569C18.3578 18.0477 18.0412 18.0477 17.8459 17.8569L16.7109 16.7479H9.40664L8.27158 17.8569C8.07632 18.0477 7.75974 18.0477 7.56448 17.8569C7.36921 17.6661 7.36921 17.3568 7.56448 17.166L7.99243 16.7479H7.91803C5.98503 16.7479 4.41803 15.2168 4.41803 13.3281V10.8854C4.41803 10.3458 4.86575 9.90832 5.41803 9.90832H6.41803ZM14.418 9.90832V10.8854H17.418V9.90832H14.418ZM13.418 10.8854H5.41803V13.3281C5.41803 14.6772 6.53732 15.7708 7.91803 15.7708H17.918C19.2987 15.7708 20.418 14.6772 20.418 13.3281V10.8854H18.418V13.8166C18.418 14.3563 17.9703 14.7937 17.418 14.7937H14.418C13.8657 14.7937 13.418 14.3563 13.418 13.8166V10.8854ZM14.418 10.8854V13.8166H17.418V12.8396H15.6272C15.3511 12.8396 15.1272 12.6208 15.1272 12.351C15.1272 12.0812 15.3511 11.8625 15.6272 11.8625H17.418V10.8854H14.418Z" fill="#33264C"/>
</svg>
