<svg width="18" height="13" viewBox="0 0 18 13" fill="none" xmlns="http://www.w3.org/2000/svg">
<path fill-rule="evenodd" clip-rule="evenodd" d="M13.883 12H4.29726L3.4437 12.8536C3.24844 13.0488 2.93186 13.0488 2.7366 12.8536C2.54133 12.6583 2.54133 12.3417 2.7366 12.1464L2.88304 12H2.59015C1.48558 12 0.590149 11.1046 0.590149 10V9C0.590149 7.8954 1.48558 7 2.59015 7H3.85771C3.68754 6.7058 3.59015 6.3643 3.59015 6C3.59015 4.8954 4.48558 4 5.59015 4H7.59015C8.18745 4 8.72365 4.2619 9.09015 4.6771C9.45665 4.2619 9.99285 4 10.5901 4H12.5901C13.6947 4 14.5901 4.8954 14.5901 6C14.5901 6.3643 14.4928 6.7058 14.3225 7H15.5901C16.6947 7 17.5901 7.8954 17.5901 9V10C17.5901 11.1046 16.6947 12 15.5901 12H15.2972L15.4437 12.1464C15.6389 12.3417 15.6389 12.6583 15.4437 12.8536C15.2484 13.0488 14.9318 13.0488 14.7365 12.8536L13.883 12ZM15.5901 8H2.59015C2.03787 8 1.59015 8.4477 1.59015 9V10C1.59015 10.5523 2.03787 11 2.59015 11H15.5901C16.1424 11 16.5901 10.5523 16.5901 10V9C16.5901 8.4477 16.1424 8 15.5901 8ZM12.5901 7C13.1424 7 13.5901 6.5523 13.5901 6C13.5901 5.4477 13.1424 5 12.5901 5H10.5901C10.0378 5 9.59015 5.4477 9.59015 6C9.59015 6.5523 10.0378 7 10.5901 7H12.5901ZM5.59015 7H7.59015C8.14245 7 8.59015 6.5523 8.59015 6C8.59015 5.4477 8.14245 5 7.59015 5H5.59015C5.03787 5 4.59015 5.4477 4.59015 6C4.59015 6.5523 5.03787 7 5.59015 7ZM2.59015 5.5C2.59015 5.7761 2.36629 6 2.09015 6C1.81401 6 1.59015 5.7761 1.59015 5.5V2.5C1.59015 1.1384 2.52765 0 3.73721 0H14.443C15.6526 0 16.5901 1.1384 16.5901 2.5V5.5C16.5901 5.7761 16.3662 6 16.0901 6C15.814 6 15.5901 5.7761 15.5901 5.5V2.5C15.5901 1.65246 15.0528 1 14.443 1H3.73721C3.12747 1 2.59015 1.65246 2.59015 2.5V5.5Z" fill="#33264C"/>
</svg>
