<svg width="88" height="89" viewBox="0 0 88 89" fill="none" xmlns="http://www.w3.org/2000/svg">
<rect width="88" height="89" rx="44" fill="#FFF2FE"/>
<g clip-path="url(#clip0_149_449)">
<path d="M40.8176 58.23H47.1825V68.9999H40.8176V58.23Z" fill="#954C92"/>
<path d="M33.5 38.2648H24.8053V33.8494H21.9928V38.2648L20.3052 46.2047H33.5V38.2648Z" fill="#954C92"/>
<path d="M27.3845 58.23H30.5503V61.4617H27.3845V58.23Z" fill="#954C92"/>
<path d="M66.0072 38.2648V33.8494H63.1947V38.2648H54.5V46.2047H67.6948L66.0072 38.2648Z" fill="#954C92"/>
<path d="M57.4498 58.23H60.6156V61.4617H57.4498V58.23Z" fill="#954C92"/>
<path d="M52.5802 49.0759L44 42.1311L35.4198 49.0759H20V69H38.0051V55.359H49.995V69H68V49.0759H52.5802ZM33.3627 64.3328H24.572V55.3589H33.3627L33.3627 64.3328ZM45.382 50.8051H42.5695V47.934H45.382V50.8051ZM63.428 64.3328H54.6372V55.3589H63.428V64.3328Z" fill="#954C92"/>
<path d="M44 38.4671L51.6875 44.6894V28.9832H36.3125V44.6894L44 38.4671ZM42.5695 31.7617H45.382V34.6328H42.5695V31.7617Z" fill="#954C92"/>
<path d="M44.0519 20H43.9481L34.5 26.112H53.5L44.0519 20Z" fill="#954C92"/>
</g>
<defs>
<clipPath id="clip0_149_449">
<rect width="48" height="49" fill="white" transform="translate(20 20)"/>
</clipPath>
</defs>
</svg>
