<svg width="88" height="89" viewBox="0 0 88 89" fill="none" xmlns="http://www.w3.org/2000/svg">
<rect width="88" height="89" rx="44" fill="#FFF4F2"/>
<path d="M40.3251 58.37C41.8523 58.0014 42.7977 56.4389 42.4367 54.8799C42.0757 53.3209 40.545 52.3558 39.0178 52.7243C37.4906 53.0929 36.5453 54.6554 36.9063 56.2144C37.2673 57.7734 38.7979 58.7385 40.3251 58.37Z" fill="#EFA496"/>
<path d="M41.778 35.0232H52.6178V42.5327H58.5667L58.0614 35.9932C57.8234 32.9133 55.3057 30.5378 52.2792 30.5378H22.9001C21.2983 30.5378 20 31.8632 20 33.4982V42.5326H41.778V35.0232ZM35.5031 37.8943H27.4758V35.0232H35.5031V37.8943Z" fill="#EFA496"/>
<path d="M44.5906 37.8943H49.8053V42.5327H44.5906V37.8943Z" fill="#EFA496"/>
<path d="M58.7885 45.4038H20V52.6005C20 54.2355 21.2983 55.561 22.9001 55.561H34.0135C34.0135 52.3782 36.5501 49.7887 39.6679 49.7887C42.7857 49.7887 45.3223 52.3782 45.3223 55.561H56.4356C58.1271 55.561 59.4596 54.0892 59.3266 52.3677L58.7885 45.4038Z" fill="#EFA496"/>
<path d="M65.1875 49.189V52.6901H62.146C62.13 53.7025 61.8552 54.6935 61.3553 55.5612H68V49.189H65.1875Z" fill="#EFA496"/>
</svg>
