<svg width="88" height="85" viewBox="0 0 88 85" fill="none" xmlns="http://www.w3.org/2000/svg">
<rect width="88" height="84.7745" rx="42.3872" fill="#F2F6FF"/>
<path d="M29.4375 54.4014H34.5623V64.7744H29.4375V54.4014Z" fill="#3C69E3"/>
<path d="M42.5938 31.0924L31.4862 20H31.2438L20 31.1216H42.5938V31.0924Z" fill="#3C69E3"/>
<path d="M51.4957 54.4014H60.5044V64.7744H51.4957V54.4014Z" fill="#3C69E3"/>
<path d="M63.0208 37.262H45.4062V42.8082H67.0666L63.0208 37.262Z" fill="#3C69E3"/>
<path d="M29.4375 39.7261H34.5623V43.8467H29.4375V39.7261Z" fill="#3C69E3"/>
<path d="M42.5938 45.5622V33.8755H20V64.7745H26.625V51.6475H37.3749V64.7745H48.6832V51.6475H63.3168V64.7745H68V45.5623H42.5938V45.5622ZM37.375 46.6006H26.625V36.9722H37.3749L37.375 46.6006Z" fill="#3C69E3"/>
<path d="M57.1951 30.8982H63.1701V34.508H57.1951V30.8982Z" fill="#3C69E3"/>
</svg>
