<svg width="88" height="88" viewBox="0 0 88 88" fill="none" xmlns="http://www.w3.org/2000/svg">
<rect width="88" height="88" rx="44" fill="#F6F2FF"/>
<g clip-path="url(#clip0_149_463)">
<path d="M68 59.3192V53.8438C68 51.9696 66.4807 50.4503 64.6065 50.4503C62.7324 50.4503 61.2131 51.9696 61.2131 53.8438V59.3191C61.2131 60.6915 62.0282 61.8728 63.2003 62.4073V65.1875H55.6484V20H32.3516V65.1875H24.7997V62.4074C25.9719 61.8728 26.7869 60.6916 26.7869 59.3192V53.8438C26.7869 51.9696 25.2676 50.4503 23.3935 50.4503C21.5193 50.4503 20 51.9696 20 53.8438V59.3191C20 60.6915 20.8152 61.8728 21.9872 62.4073V65.1875H20V68H68V65.1875H66.0128V62.4074C67.1848 61.8728 68 60.6915 68 59.3192ZM48.3938 23.4125H51.2063V29.2125H48.3938V23.4125ZM48.3938 32.1126H51.2063V37.9126H48.3938V32.1126ZM48.3938 40.8127H51.2063V46.6127H48.3938V40.8127ZM48.3938 49.5128H51.2063V55.3128H48.3938V49.5128ZM42.5938 23.4125H45.4062V29.2125H42.5938V23.4125ZM42.5938 32.1126H45.4062V37.9126H42.5938V32.1126ZM42.5938 40.8127H45.4062V46.6127H42.5938V40.8127ZM42.5938 49.5128H45.4062V55.3128H42.5938V49.5128ZM36.7937 23.4125H39.6062V29.2125H36.7937V23.4125ZM36.7937 32.1126H39.6062V37.9126H36.7937V32.1126ZM36.7937 40.8127H39.6062V46.6127H36.7937V40.8127ZM36.7937 49.5128H39.6062V55.3128H36.7937V49.5128ZM42.3562 61.0692V65.1875H39.5437V58.2567H48.4563V65.1875H45.6438V61.0692H42.3562Z" fill="#8775AD"/>
</g>
<defs>
<clipPath id="clip0_149_463">
<rect width="48" height="48" fill="white" transform="translate(20 20)"/>
</clipPath>
</defs>
</svg>
