<svg width="88" height="89" viewBox="0 0 88 89" fill="none" xmlns="http://www.w3.org/2000/svg">
<rect width="88" height="89" rx="44" fill="#F2FFF8"/>
<g clip-path="url(#clip0_149_189)">
<path d="M44.2637 20.9224H43.7363L20 42.4608V50.4751L43.7363 28.9366H44.2637L68 50.4751V42.4608L44.2637 20.9224Z" fill="#75C19A"/>
<path d="M42.3768 59.5503H45.6232V68.0773H42.3768V59.5503Z" fill="#75C19A"/>
<path d="M51.7068 39.532L47.395 43.9337H56.5576L51.7068 39.532Z" fill="#75C19A"/>
<path d="M31.4424 43.9337H40.605L36.2932 39.532L31.4424 43.9337Z" fill="#75C19A"/>
<path d="M42.5938 33.8149L38.3989 37.6213L42.5938 41.9036V33.8149Z" fill="#75C19A"/>
<path d="M45.4062 41.9036L49.6011 37.6213L45.4062 33.8149V41.9036Z" fill="#75C19A"/>
<path d="M28.2783 46.8047L23.0452 51.5533V68.0774H39.5642V56.6792H48.4356V68.0774H64.9546V51.5533L59.7215 46.8047H28.2783ZM36.4017 59.5503H27.6141V50.5797H36.4016L36.4017 59.5503ZM60.3859 59.5503H51.5983V50.5797H60.3859V59.5503Z" fill="#75C19A"/>
<path d="M30.4266 53.4507H33.5891V56.6791H30.4266V53.4507Z" fill="#75C19A"/>
<path d="M54.4108 53.4507H57.5733V56.6791H54.4108V53.4507Z" fill="#75C19A"/>
</g>
<defs>
<clipPath id="clip0_149_189">
<rect width="48" height="49" fill="white" transform="translate(20 20)"/>
</clipPath>
</defs>
</svg>
