<svg width="88" height="88" viewBox="0 0 88 88" fill="none" xmlns="http://www.w3.org/2000/svg">
<rect width="88" height="88" rx="44" fill="#FFFBF2"/>
<path d="M65.7502 20H22.2498V22.8125H26.5253V68H39.6937V60.6004H48.3062V68H61.4746V22.8125H65.7501V20H65.7502ZM33.7196 57.6129H30.9071V54.8004H33.7196V57.6129ZM33.7196 51.8127H30.9071V49.0002H33.7196V51.8127ZM33.7196 46.0127H30.9071V43.2002H33.7196V46.0127ZM33.7196 40.2127H30.9071V37.4002H33.7196V40.2127ZM33.7196 34.4126H30.9071V31.6001H33.7196V34.4126ZM33.7196 28.6125H30.9071V25.8H33.7196V28.6125ZM36.6196 63.4129H33.8071V60.6004H36.6196V63.4129ZM39.5518 57.6129H36.7393V54.8004H39.5518V57.6129ZM39.5518 51.8127H36.7393V49.0002H39.5518V51.8127ZM39.5518 46.0127H36.7393V43.2002H39.5518V46.0127ZM39.5518 40.2127H36.7393V37.4002H39.5518V40.2127ZM39.5518 34.4126H36.7393V31.6001H39.5518V34.4126ZM39.5518 28.6125H36.7393V25.8H39.5518V28.6125ZM45.3841 57.6129H42.5716V54.8004H45.3841V57.6129ZM45.3841 51.8127H42.5716V49.0002H45.3841V51.8127ZM45.3841 46.0127H42.5716V43.2002H45.3841V46.0127ZM45.3841 40.2127H42.5716V37.4002H45.3841V40.2127ZM45.3841 34.4126H42.5716V31.6001H45.3841V34.4126ZM45.3841 28.6125H42.5716V25.8H45.3841V28.6125ZM51.2164 57.6129H48.4039V54.8004H51.2164V57.6129ZM51.2164 51.8127H48.4039V49.0002H51.2164V51.8127ZM51.2164 46.0127H48.4039V43.2002H51.2164V46.0127ZM51.2164 40.2127H48.4039V37.4002H51.2164V40.2127ZM51.2164 34.4126H48.4039V31.6001H51.2164V34.4126ZM51.2164 28.6125H48.4039V25.8H51.2164V28.6125ZM54.1486 63.4129H51.3361V60.6004H54.1486V63.4129ZM57.0487 57.6129H54.2362V54.8004H57.0487V57.6129ZM57.0487 51.8127H54.2362V49.0002H57.0487V51.8127ZM57.0487 46.0127H54.2362V43.2002H57.0487V46.0127ZM57.0487 40.2127H54.2362V37.4002H57.0487V40.2127ZM57.0487 34.4126H54.2362V31.6001H57.0487V34.4126ZM57.0487 28.6125H54.2362V25.8H57.0487V28.6125Z" fill="#ECBF61"/>
<path d="M42.5062 63.4128H45.4938V67.9999H42.5062V63.4128Z" fill="#ECBF61"/>
</svg>
