<svg width="30" height="29" viewBox="0 0 30 29" fill="none" xmlns="http://www.w3.org/2000/svg">
<rect x="0.666016" width="29" height="29" rx="14.5" fill="white" fill-opacity="0.1"/>
<g clip-path="url(#clip0_23_565)">
<g clip-path="url(#clip1_23_565)">
<g clip-path="url(#clip2_23_565)">
<path d="M17.9763 8.86345H16.5155C16.1492 8.84279 15.7828 8.90091 15.441 9.0339C15.0991 9.16689 14.7898 9.37164 14.5338 9.63435C14.2778 9.89707 14.0811 10.2116 13.957 10.5568C13.8329 10.902 13.7843 11.2698 13.8145 11.6354V12.9135H12.3456C12.2847 12.9135 12.2263 12.9377 12.1832 12.9807C12.1402 13.0238 12.116 13.0822 12.116 13.1431V14.9954C12.116 15.0563 12.1402 15.1147 12.1832 15.1578C12.2263 15.2008 12.2847 15.225 12.3456 15.225H13.8145V19.8971C13.8145 19.9581 13.8387 20.0165 13.8817 20.0595C13.9248 20.1026 13.9832 20.1268 14.0441 20.1268H15.9603C16.0212 20.1268 16.0796 20.1026 16.1227 20.0595C16.1657 20.0165 16.1899 19.9581 16.1899 19.8971V15.225H17.9074C17.9683 15.225 18.0267 15.2008 18.0698 15.1578C18.1129 15.1147 18.1371 15.0563 18.1371 14.9954V13.1431C18.1371 13.0822 18.1129 13.0238 18.0698 12.9807C18.0267 12.9377 17.9683 12.9135 17.9074 12.9135H16.1899V11.8301C16.1899 11.3088 16.3138 11.0452 16.9888 11.0452H17.9723C18.0332 11.0452 18.0916 11.021 18.1347 10.978C18.1778 10.9349 18.202 10.8765 18.202 10.8156V9.0951C18.2025 9.03454 18.1791 8.97621 18.1368 8.93282C18.0946 8.88943 18.0369 8.8645 17.9763 8.86345Z" fill="white"/>
</g>
</g>
</g>
<defs>
<clipPath id="clip0_23_565">
<rect width="6.09" height="11.27" fill="white" transform="translate(12.116 8.86011)"/>
</clipPath>
<clipPath id="clip1_23_565">
<rect width="6.09" height="11.27" fill="white" transform="translate(12.116 8.86011)"/>
</clipPath>
<clipPath id="clip2_23_565">
<rect width="6.09" height="11.2634" fill="white" transform="translate(12.116 8.86353)"/>
</clipPath>
</defs>
</svg>
