<svg width="104" height="45" viewBox="0 0 104 45" fill="none" xmlns="http://www.w3.org/2000/svg">
<path d="M103.608 0L94.8405 4.99361C94.8405 4.99361 94.8355 4.99443 94.8338 4.99361C92.529 3.75732 89.8992 3.03527 87.1047 2.98516C77.6742 2.81758 69.9568 10.4193 69.9568 19.6902V44.9926C69.9568 44.9967 69.9601 45 69.9643 45H103.627C103.631 45 103.634 44.9967 103.634 44.9926L103.666 15.6462V15.6446L103.608 0ZM74.2187 38.4423V19.6721C74.2187 12.7284 79.999 7.03081 87.0604 7.17457C88.0515 7.1951 89.015 7.32818 89.9376 7.56311C89.9443 7.56476 89.9451 7.57379 89.9393 7.57708L80.0725 12.7761C80.0725 12.7761 80.0684 12.7793 80.0684 12.7818V33.7034C80.0684 33.7034 80.0675 33.7075 80.0659 33.7091L74.2304 38.4473C74.2254 38.4514 74.2187 38.4481 74.2187 38.4423ZM99.3723 40.8032C99.3723 40.8073 99.369 40.8106 99.3648 40.8106H78.0327C78.026 40.8106 78.0227 40.8024 78.0277 40.7983L84.3278 35.6823C84.3278 35.6823 84.3303 35.679 84.3303 35.6765V15.2889C84.3303 15.2889 84.332 15.2839 84.3345 15.2831L94.6207 9.86318L98.616 7.7578L98.7046 7.71098L99.3305 7.37747L99.3723 34.7105V40.8032Z" fill="white"/>
<path d="M4.76421 15.4172C4.20688 15.4172 3.76642 15.2485 3.44281 14.9113C3.1192 14.5562 2.9574 14.0858 2.9574 13.5C2.9574 12.8965 3.1192 12.4261 3.44281 12.0888C3.76642 11.7515 4.20688 11.5829 4.76421 11.5829C5.32154 11.5829 5.762 11.7515 6.08561 12.0888C6.39124 12.4261 6.54405 12.8965 6.54405 13.5C6.54405 14.1036 6.38225 14.574 6.05864 14.9113C5.73503 15.2485 5.30356 15.4172 4.76421 15.4172ZM9.34866 15.4172C8.79133 15.4172 8.35087 15.2485 8.02726 14.9113C7.70365 14.5562 7.54185 14.0858 7.54185 13.5C7.54185 12.8965 7.70365 12.4261 8.02726 12.0888C8.35087 11.7515 8.79133 11.5829 9.34866 11.5829C9.90598 11.5829 10.3375 11.7515 10.6431 12.0888C10.9667 12.4261 11.1285 12.8965 11.1285 13.5C11.1285 14.0858 10.9667 14.5562 10.6431 14.9113C10.3195 15.2485 9.88801 15.4172 9.34866 15.4172Z" fill="white"/>
<path d="M8.54048 33.0178C6.88649 33.0178 5.4662 32.7604 4.27964 32.2456C3.11106 31.7308 2.21214 30.9852 1.58291 30.0089C0.971646 29.0326 0.666016 27.861 0.666016 26.4941C0.666016 25.0562 1.0076 23.8491 1.69077 22.8728C2.37395 21.8787 3.30882 21.1243 4.49538 20.6095C5.68194 20.0947 7.03031 19.8373 8.54048 19.8373H9.29557V18.5326H13.3407V29.8225H16.7116C16.8015 29.8225 16.8464 29.858 16.8464 29.929V32.8846C16.8464 32.9734 16.8015 33.0178 16.7116 33.0178H8.54048ZM9.32253 29.8225V23.0326H8.62138C7.39886 23.0326 6.45501 23.3343 5.78981 23.9379C5.12462 24.5237 4.79202 25.3846 4.79202 26.5207C4.79202 27.5681 5.11563 28.3846 5.76284 28.9704C6.41006 29.5385 7.34493 29.8225 8.56745 29.8225H9.32253Z" fill="white"/>
<path d="M16.4493 33.0178C16.3594 33.0178 16.3145 32.9734 16.3145 32.8846V29.929C16.3145 29.858 16.3594 29.8225 16.4493 29.8225H26.9935V25.5355C26.9935 24.4704 26.616 23.6539 25.8609 23.0858C25.1238 22.5 24.0721 22.2071 22.7057 22.2071H18.1213V19.3314C18.4269 18.6746 18.7775 18.0444 19.173 17.4409C19.5865 16.8373 20.0359 16.2604 20.5214 15.7101C21.5102 14.5917 22.6518 13.5977 23.9462 12.7278C25.2406 11.858 26.6519 11.148 28.1801 10.5977L29.6633 14.1657C28.8902 14.3965 28.1262 14.6894 27.3711 15.0444C26.634 15.3994 25.9328 15.7988 25.2676 16.2426C24.6204 16.6687 24.0451 17.1213 23.5417 17.6006C23.0383 18.0622 22.6248 18.5326 22.3012 19.0119H23.326C25.8969 19.0119 27.8205 19.5178 29.097 20.5296C30.3734 21.5237 31.0117 23.0237 31.0117 25.0296V29.8225H34.5174C34.6073 29.8225 34.6522 29.858 34.6522 29.929V32.8846C34.6522 32.9734 34.6073 33.0178 34.5174 33.0178H16.4493Z" fill="white"/>
<path d="M53.5606 33.0178C52.7875 33.0178 52.0504 32.8491 51.3493 32.5119C50.6481 32.1746 49.9739 31.6775 49.3267 31.0207C48.8233 31.6775 48.1941 32.1746 47.439 32.5119C46.7019 32.8491 45.8299 33.0178 44.8232 33.0178H34.252C34.1621 33.0178 34.1171 32.9734 34.1171 32.8846V29.929C34.1171 29.858 34.1621 29.8225 34.252 29.8225H37.6229V21.9142H41.641V29.8225H43.9332C44.8321 29.8225 45.4883 29.5829 45.9018 29.1036C46.3153 28.6065 46.5221 27.8166 46.5221 26.7338V21.9142H50.5402V27.0533C50.5402 27.2663 50.5312 27.4704 50.5133 27.6657C50.5133 27.861 50.4953 28.0562 50.4593 28.2515C50.9088 28.8373 51.3493 29.2456 51.7807 29.4764C52.2122 29.7071 52.7785 29.8225 53.4797 29.8225H55.1516V19.8373H59.1698V33.0178H53.5606Z" fill="white"/>
<path d="M16.2734 44.9999C16.1619 44.9999 16.0738 44.9644 16.0091 44.8934C15.9444 44.8259 15.912 44.7336 15.912 44.6165C15.912 44.4993 15.9444 44.4052 16.0091 44.3342C16.0738 44.2668 16.1619 44.233 16.2734 44.233C16.3848 44.233 16.4729 44.2668 16.5376 44.3342C16.5988 44.4017 16.6293 44.4958 16.6293 44.6165C16.6293 44.7372 16.597 44.8313 16.5322 44.8987C16.4675 44.9662 16.3812 44.9999 16.2734 44.9999ZM17.1902 44.9999C17.0788 44.9999 16.9907 44.9644 16.926 44.8934C16.8612 44.8259 16.8289 44.7336 16.8289 44.6165C16.8289 44.4993 16.8612 44.4052 16.926 44.3342C16.9907 44.2668 17.0788 44.233 17.1902 44.233C17.3017 44.233 17.388 44.2668 17.4491 44.3342C17.5139 44.4052 17.5462 44.4993 17.5462 44.6165C17.5462 44.7336 17.5139 44.8259 17.4491 44.8934C17.3844 44.9644 17.2981 44.9999 17.1902 44.9999Z" fill="white"/>
<path d="M16.0428 43.8816C15.8235 43.8816 15.6329 43.8265 15.4711 43.7165C15.3093 43.61 15.1835 43.4644 15.0936 43.2798C15.0037 43.0987 14.9587 42.8946 14.9587 42.6674C14.9587 42.4934 14.9731 42.3212 15.0019 42.1508C15.0307 41.9804 15.0738 41.81 15.1313 41.6395H15.8487C15.8019 41.7851 15.7714 41.9253 15.757 42.0603C15.7426 42.1916 15.7354 42.3549 15.7354 42.5502C15.7354 42.6709 15.7642 42.7845 15.8217 42.891C15.8828 42.9975 15.9619 43.0827 16.059 43.1466C16.1597 43.2106 16.2658 43.2425 16.3772 43.2425H17.3103C17.4577 43.2425 17.5908 43.2336 17.7094 43.2159C17.8317 43.2017 17.9287 43.1715 18.0007 43.1253C18.0762 43.0792 18.1139 43.0117 18.1139 42.923C18.1139 42.8733 18.1031 42.8271 18.0816 42.7845C18.06 42.7455 18.0258 42.7046 17.9791 42.662C17.9359 42.623 17.8748 42.5804 17.7957 42.5342C17.7202 42.4845 17.6393 42.433 17.553 42.3798C17.4703 42.3265 17.3786 42.2662 17.2779 42.1987C17.1449 42.11 17.0406 42.0301 16.9651 41.9591C16.8896 41.8881 16.8357 41.8171 16.8033 41.7461C16.7745 41.675 16.7602 41.6005 16.7602 41.5224C16.7602 41.4194 16.7835 41.3076 16.8303 41.1869C16.8806 41.0662 16.9525 40.9401 17.046 40.8088C17.1755 40.6313 17.3211 40.4768 17.4829 40.3455C17.6447 40.2106 17.8137 40.1058 17.9899 40.0313C18.1661 39.9567 18.3351 39.9194 18.4969 39.9194C18.5544 39.9194 18.6101 39.9265 18.6641 39.9407C18.7216 39.9514 18.7863 39.9745 18.8582 40.01C18.9301 40.0455 19.02 40.0987 19.1279 40.1697L18.8366 40.7502C18.7899 40.7218 18.7432 40.6969 18.6964 40.6756C18.6497 40.6543 18.6029 40.6384 18.5562 40.6277C18.5094 40.6135 18.4609 40.6064 18.4106 40.6064C18.3638 40.6064 18.3099 40.6188 18.2488 40.6437C18.1876 40.6685 18.1175 40.7058 18.0384 40.7555C17.9341 40.8194 17.8407 40.8904 17.758 40.9685C17.6788 41.0431 17.6159 41.1177 17.5692 41.1922C17.5224 41.2632 17.4991 41.3289 17.4991 41.3893C17.4991 41.4354 17.526 41.4869 17.58 41.5437C17.6339 41.5969 17.6968 41.6502 17.7687 41.7035C17.8442 41.7532 17.9144 41.7993 17.9791 41.8419C18.051 41.8881 18.1265 41.9395 18.2056 41.9964C18.2847 42.0496 18.3638 42.11 18.4429 42.1774C18.6011 42.3088 18.7198 42.4348 18.7989 42.5555C18.878 42.6762 18.9175 42.7934 18.9175 42.907C18.9175 43.2336 18.7791 43.4768 18.5023 43.6366C18.229 43.7999 17.8335 43.8816 17.3157 43.8816H16.0428Z" fill="white"/>
<path d="M20.1462 43.8816C19.9629 43.8816 19.7939 43.8603 19.6393 43.8177C19.4846 43.7751 19.3228 43.6969 19.1538 43.5833L19.4775 43.0668C19.5709 43.1271 19.6536 43.1679 19.7256 43.1893C19.8011 43.2106 19.8892 43.2212 19.9898 43.2212C20.1337 43.2212 20.2487 43.1662 20.335 43.0561C20.4249 42.9496 20.4699 42.8147 20.4699 42.6514V39.9674H21.2735V42.6887C21.2735 42.9301 21.2267 43.1395 21.1333 43.3171C21.0398 43.4981 20.9085 43.6366 20.7395 43.7324C20.5741 43.8319 20.3764 43.8816 20.1462 43.8816Z" fill="white"/>
<path d="M23.7517 41.9644C23.7696 41.9644 23.7786 41.9715 23.7786 41.9857V42.5768C23.7786 42.5946 23.7696 42.6035 23.7517 42.6035H22.2738V38.5561H23.0775V41.9644H23.7517Z" fill="white"/>
<path d="M24.9009 39.2431C24.7895 39.2431 24.7014 39.2094 24.6366 39.1419C24.5719 39.0709 24.5396 38.9768 24.5396 38.8597C24.5396 38.739 24.5719 38.6449 24.6366 38.5774C24.7014 38.51 24.7895 38.4762 24.9009 38.4762C25.0124 38.4762 25.1005 38.51 25.1652 38.5774C25.2263 38.6449 25.2569 38.739 25.2569 38.8597C25.2569 38.9804 25.2245 39.0745 25.1598 39.1419C25.0951 39.2094 25.0088 39.2431 24.9009 39.2431ZM25.8178 39.2431C25.7064 39.2431 25.6183 39.2094 25.5535 39.1419C25.4888 39.0709 25.4565 38.9768 25.4565 38.8597C25.4565 38.739 25.4888 38.6449 25.5535 38.5774C25.6183 38.51 25.7064 38.4762 25.8178 38.4762C25.9293 38.4762 26.0156 38.51 26.0767 38.5774C26.1414 38.6449 26.1738 38.739 26.1738 38.8597C26.1738 38.9768 26.1414 39.0709 26.0767 39.1419C26.012 39.2094 25.9257 39.2431 25.8178 39.2431Z" fill="white"/>
<path d="M27.42 41.9644C27.438 41.9644 27.4469 41.9715 27.4469 41.9857V42.5768C27.4469 42.5946 27.438 42.6035 27.42 42.6035H23.6985C23.6805 42.6035 23.6715 42.5946 23.6715 42.5768V41.9857C23.6715 41.9715 23.6805 41.9644 23.6985 41.9644H24.4697C24.4122 41.8969 24.3637 41.8259 24.3241 41.7514C24.2882 41.6768 24.2594 41.5987 24.2378 41.5171C24.2198 41.4354 24.2109 41.3502 24.2109 41.2614C24.2109 40.9952 24.272 40.7662 24.3942 40.5745C24.5201 40.3792 24.6999 40.2301 24.9336 40.1271C25.1709 40.0206 25.455 39.9674 25.7858 39.9674H26.7458V41.9644H27.42ZM25.9422 41.9644V40.6064H25.8019C25.6401 40.6064 25.5017 40.633 25.3866 40.6863C25.2716 40.7395 25.1835 40.8177 25.1224 40.9206C25.0648 41.0236 25.0361 41.1514 25.0361 41.304C25.0361 41.4425 25.0648 41.5614 25.1224 41.6608C25.1799 41.7603 25.2644 41.8366 25.3758 41.8898C25.4909 41.9395 25.6293 41.9644 25.7911 41.9644H25.9422Z" fill="white"/>
<path d="M29.991 42.6035C29.822 42.6035 29.6458 42.575 29.4624 42.5182C29.279 42.4614 29.1226 42.3904 28.9932 42.3052C28.8278 42.4046 28.6606 42.4792 28.4916 42.5289C28.3262 42.5786 28.159 42.6035 27.99 42.6035H27.3644C27.3464 42.6035 27.3374 42.5946 27.3374 42.5768V41.9857C27.3374 41.9715 27.3464 41.9644 27.3644 41.9644H27.9037C27.9864 41.9644 28.0763 41.9555 28.1734 41.9378C28.2705 41.9165 28.3496 41.8916 28.4107 41.8632C28.3568 41.8242 28.301 41.7727 28.2435 41.7088C28.1896 41.6413 28.132 41.5632 28.0709 41.4745C27.9522 41.2969 27.848 41.1052 27.7581 40.8993C27.6718 40.6934 27.6125 40.4946 27.5801 40.3029C27.7239 40.1857 27.8803 40.0863 28.0493 40.0046C28.2219 39.9194 28.3981 39.8555 28.5779 39.8129C28.7577 39.7668 28.9303 39.7437 29.0957 39.7437C29.3509 39.7437 29.5919 39.7703 29.8184 39.8236C30.0449 39.8768 30.2553 39.9567 30.4494 40.0632C30.4494 40.3188 30.4135 40.562 30.3415 40.7928C30.2696 41.0236 30.1672 41.2313 30.0341 41.4159C29.9047 41.5969 29.7501 41.7443 29.5703 41.8579C29.6386 41.8934 29.7123 41.92 29.7914 41.9378C29.8741 41.9555 29.9622 41.9644 30.0557 41.9644H30.6759C30.6939 41.9644 30.7029 41.9715 30.7029 41.9857V42.5768C30.7029 42.5946 30.6939 42.6035 30.6759 42.6035H29.991ZM29.004 41.533C29.2161 41.4088 29.3779 41.2597 29.4894 41.0857C29.6044 40.9082 29.6692 40.7058 29.6835 40.4786C29.6044 40.4466 29.5146 40.4236 29.4139 40.4094C29.3132 40.3916 29.1999 40.3827 29.0741 40.3827C28.9986 40.3827 28.9159 40.3916 28.826 40.4094C28.7397 40.4271 28.657 40.452 28.5779 40.4839C28.5024 40.5123 28.4377 40.5461 28.3837 40.5851C28.4197 40.7129 28.4682 40.839 28.5293 40.9632C28.5905 41.0839 28.6606 41.194 28.7397 41.2934C28.8224 41.3893 28.9105 41.4691 29.004 41.533Z" fill="white"/>
<path d="M30.6194 42.6035C30.6014 42.6035 30.5924 42.5946 30.5924 42.5768V41.9857C30.5924 41.9715 30.6014 41.9644 30.6194 41.9644H31.2936V38.5561H32.0972V42.6035H30.6194Z" fill="white"/>
<path d="M33.1767 38.5561H33.9803V42.6035H33.1767V38.5561Z" fill="white"/>
<path d="M39.1009 39.2431C38.9895 39.2431 38.9014 39.2094 38.8366 39.1419C38.7719 39.0709 38.7396 38.9768 38.7396 38.8597C38.7396 38.739 38.7719 38.6449 38.8366 38.5774C38.9014 38.51 38.9895 38.4762 39.1009 38.4762C39.2124 38.4762 39.3005 38.51 39.3652 38.5774C39.4263 38.6449 39.4569 38.739 39.4569 38.8597C39.4569 38.9804 39.4245 39.0745 39.3598 39.1419C39.2951 39.2094 39.2088 39.2431 39.1009 39.2431ZM40.0178 39.2431C39.9063 39.2431 39.8183 39.2094 39.7535 39.1419C39.6888 39.0709 39.6565 38.9768 39.6565 38.8597C39.6565 38.739 39.6888 38.6449 39.7535 38.5774C39.8183 38.51 39.9063 38.4762 40.0178 38.4762C40.1293 38.4762 40.2156 38.51 40.2767 38.5774C40.3414 38.6449 40.3738 38.739 40.3738 38.8597C40.3738 38.9768 40.3414 39.0709 40.2767 39.1419C40.212 39.2094 40.1257 39.2431 40.0178 39.2431Z" fill="white"/>
<path d="M41.7548 41.9644C41.7728 41.9644 41.7818 41.9715 41.7818 41.9857V42.5768C41.7818 42.5946 41.7728 42.6035 41.7548 42.6035H41.0753V42.6248C41.0753 42.8839 41.0177 43.1076 40.9027 43.2958C40.7876 43.4839 40.6168 43.6277 40.3903 43.7271C40.1638 43.8301 39.8851 43.8816 39.5543 43.8816H38.1304C37.8644 43.8816 37.6199 43.8177 37.3969 43.6898C37.1776 43.562 37.0068 43.3827 36.8845 43.152C36.7623 42.9248 36.7012 42.6709 36.7012 42.3904C36.7012 42.1881 36.7245 41.9839 36.7713 41.778C36.8216 41.5685 36.8899 41.3804 36.9762 41.2135H37.6882C37.6306 41.4017 37.5857 41.6005 37.5533 41.81C37.521 42.0194 37.5048 42.2147 37.5048 42.3958C37.5048 42.662 37.5785 42.8697 37.7259 43.0188C37.8733 43.1679 38.0891 43.2425 38.3731 43.2425H39.2846C39.5184 43.2425 39.7071 43.2212 39.851 43.1786C39.9984 43.136 40.1062 43.0685 40.1746 42.9762C40.2429 42.8875 40.277 42.7721 40.277 42.6301V42.6035H39.8617C39.7359 42.6035 39.6154 42.591 39.5004 42.5662C39.3889 42.5378 39.2828 42.4952 39.1822 42.4384C38.9844 42.3283 38.828 42.1756 38.7129 41.9804C38.6015 41.7816 38.5457 41.549 38.5457 41.2827C38.5457 41.1478 38.5601 41.0236 38.5889 40.91C38.6212 40.7928 38.668 40.6845 38.7291 40.5851C38.855 40.3863 39.0347 40.2336 39.2685 40.1271C39.5058 40.0206 39.7916 39.9674 40.126 39.9674H41.0807V41.9644H41.7548ZM40.126 41.9644H40.277V40.6064H40.1368C39.9678 40.6064 39.8258 40.633 39.7107 40.6863C39.5957 40.736 39.5094 40.8141 39.4518 40.9206C39.3979 41.0236 39.3709 41.1549 39.3709 41.3147C39.3709 41.4567 39.3997 41.5774 39.4572 41.6768C39.5184 41.7727 39.6047 41.8455 39.7161 41.8952C39.8312 41.9413 39.9678 41.9644 40.126 41.9644Z" fill="white"/>
<path d="M42.24 43.6685C42.1285 43.6685 42.0404 43.633 41.9757 43.562C41.911 43.4946 41.8786 43.4023 41.8786 43.2851C41.8786 43.1679 41.911 43.0739 41.9757 43.0029C42.0404 42.9354 42.1285 42.9017 42.24 42.9017C42.3514 42.9017 42.4395 42.9354 42.5042 43.0029C42.5654 43.0703 42.5959 43.1644 42.5959 43.2851C42.5959 43.4058 42.5636 43.4999 42.4989 43.5674C42.4341 43.6348 42.3478 43.6685 42.24 43.6685ZM43.1569 43.6685C43.0454 43.6685 42.9573 43.633 42.8926 43.562C42.8279 43.4946 42.7955 43.4023 42.7955 43.2851C42.7955 43.1679 42.8279 43.0739 42.8926 43.0029C42.9573 42.9354 43.0454 42.9017 43.1569 42.9017C43.2683 42.9017 43.3546 42.9354 43.4157 43.0029C43.4805 43.0739 43.5128 43.1679 43.5128 43.2851C43.5128 43.4023 43.4805 43.4946 43.4157 43.562C43.351 43.633 43.2647 43.6685 43.1569 43.6685Z" fill="white"/>
<path d="M41.7013 42.6035C41.6833 42.6035 41.6743 42.5946 41.6743 42.5768V41.9857C41.6743 41.9715 41.6833 41.9644 41.7013 41.9644H42.6451V39.9674H43.4488V42.6035H41.7013Z" fill="white"/>
<path d="M47.5063 41.9644C47.5242 41.9644 47.5332 41.9715 47.5332 41.9857V42.5768C47.5332 42.5946 47.5242 42.6035 47.5063 42.6035H46.53C46.5121 42.6035 46.5031 42.5946 46.5031 42.5768V41.9857C46.5031 41.9715 46.5121 41.9644 46.53 41.9644H47.5063ZM45.4082 43.8816C45.1637 43.8816 44.9516 43.862 44.7718 43.823C44.5956 43.7875 44.4248 43.7218 44.2594 43.6259L44.5722 43.0455C44.7196 43.12 44.8581 43.1715 44.9875 43.1999C45.117 43.2319 45.2518 43.2478 45.392 43.2478C45.597 43.2478 45.7534 43.1928 45.8613 43.0827C45.9727 42.9727 46.0285 42.8218 46.0285 42.6301V42.6035H45.4945C45.1098 42.6035 44.8131 42.4969 44.6046 42.2839C44.3996 42.0674 44.2972 41.7603 44.2972 41.3626C44.2972 41.0608 44.3709 40.807 44.5183 40.6011C44.6693 40.3916 44.8743 40.2336 45.1331 40.1271C45.392 40.0206 45.6851 39.9674 46.0123 39.9674H46.8321V42.6194C46.8321 43.0242 46.708 43.3348 46.4599 43.5514C46.2118 43.7715 45.8613 43.8816 45.4082 43.8816ZM46.0285 41.9644V40.6064H45.8559C45.6257 40.6064 45.446 40.6703 45.3165 40.7981C45.1871 40.9259 45.1224 41.107 45.1224 41.3413C45.1224 41.5543 45.1655 41.7123 45.2518 41.8153C45.3417 41.9147 45.4765 41.9644 45.6563 41.9644H46.0285Z" fill="white"/>
<path d="M51.3146 42.6035C51.16 42.6035 51.0126 42.5697 50.8724 42.5023C50.7322 42.4348 50.5973 42.3354 50.4679 42.204C50.3672 42.3354 50.2413 42.4348 50.0903 42.5023C49.9429 42.5697 49.7685 42.6035 49.5672 42.6035H47.4529C47.4349 42.6035 47.426 42.5946 47.426 42.5768V41.9857C47.426 41.9715 47.4349 41.9644 47.4529 41.9644H48.1271V40.3827H48.9307V41.9644H49.3892C49.569 41.9644 49.7002 41.9165 49.7829 41.8206C49.8656 41.7212 49.9069 41.5632 49.9069 41.3466V40.3827H50.7106V41.4106C50.7106 41.4532 50.7088 41.494 50.7052 41.533C50.7052 41.5721 50.7016 41.6111 50.6944 41.6502C50.7843 41.7674 50.8724 41.849 50.9587 41.8952C51.045 41.9413 51.1582 41.9644 51.2985 41.9644H51.6329V39.9674H52.4365V41.9644H53.1376C53.1556 41.9644 53.1646 41.9715 53.1646 41.9857V42.5768C53.1646 42.5946 53.1556 42.6035 53.1376 42.6035H51.3146Z" fill="white"/>
<path d="M53.6485 38.9768C53.5371 38.9768 53.449 38.9431 53.3843 38.8756C53.3195 38.8046 53.2872 38.7106 53.2872 38.5934C53.2872 38.4727 53.3195 38.3786 53.3843 38.3111C53.449 38.2437 53.5371 38.21 53.6485 38.21C53.76 38.21 53.8481 38.2437 53.9128 38.3111C53.9739 38.3786 54.0045 38.4727 54.0045 38.5934C54.0045 38.7141 53.9722 38.8082 53.9074 38.8756C53.8427 38.9431 53.7564 38.9768 53.6485 38.9768ZM54.5654 38.9768C54.454 38.9768 54.3659 38.9431 54.3012 38.8756C54.2364 38.8046 54.2041 38.7106 54.2041 38.5934C54.2041 38.4727 54.2364 38.3786 54.3012 38.3111C54.3659 38.2437 54.454 38.21 54.5654 38.21C54.6769 38.21 54.7632 38.2437 54.8243 38.3111C54.889 38.3786 54.9214 38.4727 54.9214 38.5934C54.9214 38.7106 54.889 38.8046 54.8243 38.8756C54.7596 38.9431 54.6733 38.9768 54.5654 38.9768Z" fill="white"/>
<path d="M53.0834 42.6035C53.0654 42.6035 53.0564 42.5946 53.0564 42.5768V41.9857C53.0564 41.9715 53.0654 41.9644 53.0834 41.9644H53.9194V39.9674H54.723V41.9644H55.532C55.55 41.9644 55.559 41.9715 55.559 41.9857V42.5768C55.559 42.5946 55.55 42.6035 55.532 42.6035H53.0834Z" fill="white"/>
<path d="M55.4799 42.6035C55.4619 42.6035 55.453 42.5946 55.453 42.5768V41.9857C55.453 41.9715 55.4619 41.9644 55.4799 41.9644H56.1541V38.5561H56.9577V41.9644H57.6589C57.6769 41.9644 57.6859 41.9715 57.6859 41.9857V42.5768C57.6859 42.5946 57.6769 42.6035 57.6589 42.6035H55.4799Z" fill="white"/>
<path d="M57.6026 42.6035C57.5846 42.6035 57.5756 42.5946 57.5756 42.5768V41.9857C57.5756 41.9715 57.5846 41.9644 57.6026 41.9644H58.2767V38.5561H59.0804V42.6035H57.6026Z" fill="white"/>
</svg>
