<svg width="30" height="29" viewBox="0 0 30 29" fill="none" xmlns="http://www.w3.org/2000/svg">
<rect x="0.666016" width="29" height="29" rx="14.5" fill="white" fill-opacity="0.1"/>
<g clip-path="url(#clip0_23_552)">
<g clip-path="url(#clip1_23_552)">
<g clip-path="url(#clip2_23_552)">
<path d="M18.3101 6.71997H12.0209C10.7921 6.72156 9.61415 7.21039 8.74527 8.07926C7.8764 8.94813 7.38757 10.1261 7.38599 11.3549V17.6441C7.38757 18.8728 7.8764 20.0508 8.74527 20.9197C9.61415 21.7886 10.7921 22.2774 12.0209 22.279H18.3101C19.5388 22.2774 20.7168 21.7886 21.5857 20.9197C22.4546 20.0508 22.9434 18.8728 22.945 17.6441V11.3549C22.9434 10.1261 22.4546 8.94813 21.5857 8.07926C20.7168 7.21039 19.5388 6.72156 18.3101 6.71997ZM21.3797 17.6441C21.3797 18.0472 21.3003 18.4463 21.146 18.8187C20.9918 19.1912 20.7657 19.5296 20.4806 19.8146C20.1956 20.0996 19.8572 20.3258 19.4848 20.48C19.1123 20.6343 18.7132 20.7137 18.3101 20.7137H12.0209C11.6178 20.7137 11.2186 20.6343 10.8462 20.48C10.4738 20.3258 10.1354 20.0996 9.85035 19.8146C9.56531 19.5296 9.33921 19.1912 9.18494 18.8187C9.03068 18.4463 8.95128 18.0472 8.95128 17.6441V11.3549C8.95128 10.5408 9.27469 9.76 9.85035 9.18434C10.426 8.60867 11.2068 8.28527 12.0209 8.28527H18.3101C18.7132 8.28527 19.1123 8.36466 19.4848 8.51893C19.8572 8.67319 20.1956 8.8993 20.4806 9.18434C20.7657 9.46938 20.9918 9.80777 21.146 10.1802C21.3003 10.5526 21.3797 10.9518 21.3797 11.3549V17.6441Z" fill="white"/>
<path d="M15.1655 10.4753C14.3696 10.4753 13.5916 10.7114 12.9298 11.1535C12.2681 11.5957 11.7523 12.2242 11.4477 12.9595C11.1431 13.6949 11.0634 14.504 11.2187 15.2846C11.374 16.0652 11.7572 16.7823 12.32 17.3451C12.8828 17.9079 13.5999 18.2911 14.3805 18.4464C15.1611 18.6017 15.9702 18.522 16.7055 18.2174C17.4409 17.9128 18.0693 17.397 18.5115 16.7353C18.9537 16.0735 19.1897 15.2954 19.1897 14.4995C19.1884 13.4327 18.764 12.4099 18.0096 11.6555C17.2552 10.9011 16.2324 10.4767 15.1655 10.4753ZM15.1655 16.9584C14.6792 16.9584 14.2038 16.8142 13.7995 16.544C13.3951 16.2738 13.0799 15.8898 12.8938 15.4405C12.7077 14.9912 12.659 14.4968 12.7539 14.0198C12.8488 13.5429 13.083 13.1047 13.4268 12.7608C13.7707 12.4169 14.2089 12.1828 14.6858 12.0879C15.1628 11.993 15.6572 12.0417 16.1065 12.2278C16.5558 12.4139 16.9399 12.7291 17.21 13.1334C17.4802 13.5378 17.6244 14.0132 17.6244 14.4995C17.6244 15.1517 17.3654 15.7771 16.9043 16.2382C16.4431 16.6994 15.8177 16.9584 15.1655 16.9584Z" fill="white"/>
<path d="M19.1991 11.4717C19.7321 11.4717 20.1641 11.0397 20.1641 10.5067C20.1641 9.97379 19.7321 9.54175 19.1991 9.54175C18.6662 9.54175 18.2341 9.97379 18.2341 10.5067C18.2341 11.0397 18.6662 11.4717 19.1991 11.4717Z" fill="white"/>
</g>
</g>
</g>
<defs>
<clipPath id="clip0_23_552">
<rect width="15.56" height="15.56" fill="white" transform="translate(7.38599 6.71997)"/>
</clipPath>
<clipPath id="clip1_23_552">
<rect width="15.56" height="15.56" fill="white" transform="translate(7.38599 6.71997)"/>
</clipPath>
<clipPath id="clip2_23_552">
<rect width="15.56" height="15.56" fill="white" transform="translate(7.38599 6.71997)"/>
</clipPath>
</defs>
</svg>
