<svg width="103" height="46" viewBox="0 0 103 46" fill="none" xmlns="http://www.w3.org/2000/svg">
<path d="M102.942 0.5L94.1745 5.49361C94.1745 5.49361 94.1694 5.49443 94.1678 5.49361C91.863 4.25732 89.2332 3.53527 86.4387 3.48516C77.0082 3.31758 69.2908 10.9193 69.2908 20.1902V45.4926C69.2908 45.4967 69.2941 45.5 69.2983 45.5H102.961C102.965 45.5 102.968 45.4967 102.968 45.4926L103 16.1462V16.1446L102.942 0.5ZM73.5527 38.9423V20.1721C73.5527 13.2284 79.333 7.53081 86.3944 7.67457C87.3855 7.6951 88.349 7.82818 89.2716 8.06311C89.2783 8.06476 89.2791 8.07379 89.2733 8.07708L79.4065 13.2761C79.4065 13.2761 79.4024 13.2793 79.4024 13.2818V34.2034C79.4024 34.2034 79.4015 34.2075 79.3998 34.2091L73.5644 38.9473C73.5594 38.9514 73.5527 38.9481 73.5527 38.9423ZM98.7063 41.3032C98.7063 41.3073 98.703 41.3106 98.6988 41.3106H77.3667C77.36 41.3106 77.3566 41.3024 77.3617 41.2983L83.6618 36.1823C83.6618 36.1823 83.6643 36.179 83.6643 36.1765V15.7889C83.6643 15.7889 83.6659 15.7839 83.6684 15.7831L93.9547 10.3632L97.95 8.2578L98.0386 8.21098L98.6645 7.87747L98.7063 35.2105V41.3032Z" fill="#3C69E3"/>
<path d="M4.09819 15.9172C3.54087 15.9172 3.1004 15.7485 2.77679 15.4113C2.45319 15.0562 2.29138 14.5858 2.29138 14C2.29138 13.3965 2.45319 12.926 2.77679 12.5888C3.1004 12.2515 3.54087 12.0829 4.09819 12.0829C4.65552 12.0829 5.09599 12.2515 5.41959 12.5888C5.72522 12.926 5.87804 13.3965 5.87804 14C5.87804 14.6036 5.71624 15.074 5.39263 15.4113C5.06902 15.7485 4.63754 15.9172 4.09819 15.9172ZM8.68264 15.9172C8.12532 15.9172 7.68485 15.7485 7.36124 15.4113C7.03764 15.0562 6.87583 14.5858 6.87583 14C6.87583 13.3965 7.03764 12.926 7.36124 12.5888C7.68485 12.2515 8.12532 12.0829 8.68264 12.0829C9.23997 12.0829 9.67145 12.2515 9.97708 12.5888C10.3007 12.926 10.4625 13.3965 10.4625 14C10.4625 14.5858 10.3007 15.0562 9.97708 15.4113C9.65347 15.7485 9.22199 15.9172 8.68264 15.9172Z" fill="#0D0065"/>
<path d="M7.87447 33.5178C6.22047 33.5178 4.80019 33.2604 3.61363 32.7456C2.44504 32.2308 1.54613 31.4852 0.91689 30.5089C0.30563 29.5326 0 28.361 0 26.9941C0 25.5562 0.341586 24.3491 1.02476 23.3728C1.70793 22.3787 2.6428 21.6243 3.82936 21.1095C5.01593 20.5947 6.3643 20.3373 7.87447 20.3373H8.62955V19.0326H12.6747V30.3225H16.0456C16.1355 30.3225 16.1804 30.358 16.1804 30.429V33.3846C16.1804 33.4734 16.1355 33.5178 16.0456 33.5178H7.87447ZM8.65652 30.3225V23.5326H7.95537C6.73285 23.5326 5.78899 23.8343 5.1238 24.4379C4.4586 25.0237 4.126 25.8846 4.126 27.0207C4.126 28.0681 4.44961 28.8846 5.09683 29.4704C5.74405 30.0385 6.67891 30.3225 7.90143 30.3225H8.65652Z" fill="#0D0065"/>
<path d="M15.7833 33.5178C15.6934 33.5178 15.6484 33.4734 15.6484 33.3846V30.429C15.6484 30.358 15.6934 30.3225 15.7833 30.3225H26.3275V26.0355C26.3275 24.9704 25.95 24.1539 25.1949 23.5858C24.4578 23 23.406 22.7071 22.0397 22.7071H17.4552V19.8314C17.7609 19.1746 18.1115 18.5444 18.507 17.9408C18.9205 17.3373 19.3699 16.7604 19.8553 16.2101C20.8441 15.0917 21.9858 14.0976 23.2802 13.2278C24.5746 12.358 25.9859 11.6479 27.5141 11.0976L28.9973 14.6657C28.2242 14.8965 27.4601 15.1894 26.705 15.5444C25.9679 15.8994 25.2668 16.2988 24.6016 16.7426C23.9544 17.1687 23.3791 17.6213 22.8757 18.1006C22.3723 18.5621 21.9588 19.0326 21.6352 19.5118H22.6599C25.2308 19.5118 27.1545 20.0178 28.431 21.0296C29.7074 22.0237 30.3456 23.5237 30.3456 25.5296V30.3225H33.8514C33.9413 30.3225 33.9862 30.358 33.9862 30.429V33.3846C33.9862 33.4734 33.9413 33.5178 33.8514 33.5178H15.7833Z" fill="#0D0065"/>
<path d="M52.8946 33.5178C52.1215 33.5178 51.3844 33.3491 50.6832 33.0118C49.9821 32.6746 49.3079 32.1775 48.6607 31.5207C48.1573 32.1775 47.5281 32.6746 46.773 33.0118C46.0359 33.3491 45.1639 33.5178 44.1571 33.5178H33.5859C33.496 33.5178 33.4511 33.4734 33.4511 33.3846V30.429C33.4511 30.358 33.496 30.3225 33.5859 30.3225H36.9569V22.4142H40.975V30.3225H43.2672C44.1661 30.3225 44.8223 30.0829 45.2358 29.6036C45.6493 29.1065 45.8561 28.3166 45.8561 27.2337V22.4142H49.8742V27.5533C49.8742 27.7663 49.8652 27.9704 49.8473 28.1657C49.8473 28.361 49.8293 28.5562 49.7933 28.7515C50.2428 29.3373 50.6832 29.7456 51.1147 29.9763C51.5462 30.2071 52.1125 30.3225 52.8137 30.3225H54.4856V20.3373H58.5038V33.5178H52.8946Z" fill="#0D0065"/>
<path d="M15.6073 45.5C15.4959 45.5 15.4078 45.4645 15.3431 45.3935C15.2783 45.326 15.246 45.2337 15.246 45.1166C15.246 44.9994 15.2783 44.9053 15.3431 44.8343C15.4078 44.7669 15.4959 44.7331 15.6073 44.7331C15.7188 44.7331 15.8069 44.7669 15.8716 44.8343C15.9327 44.9018 15.9633 44.9959 15.9633 45.1166C15.9633 45.2373 15.9309 45.3314 15.8662 45.3988C15.8015 45.4663 15.7152 45.5 15.6073 45.5ZM16.5242 45.5C16.4128 45.5 16.3247 45.4645 16.26 45.3935C16.1952 45.326 16.1629 45.2337 16.1629 45.1166C16.1629 44.9994 16.1952 44.9053 16.26 44.8343C16.3247 44.7669 16.4128 44.7331 16.5242 44.7331C16.6357 44.7331 16.722 44.7669 16.7831 44.8343C16.8478 44.9053 16.8802 44.9994 16.8802 45.1166C16.8802 45.2337 16.8478 45.326 16.7831 45.3935C16.7184 45.4645 16.6321 45.5 16.5242 45.5Z" fill="#0D0065"/>
<path d="M15.3768 44.3817C15.1575 44.3817 14.9669 44.3266 14.8051 44.2166C14.6433 44.1101 14.5175 43.9645 14.4276 43.7799C14.3377 43.5988 14.2927 43.3947 14.2927 43.1675C14.2927 42.9935 14.3071 42.8213 14.3359 42.6509C14.3646 42.4805 14.4078 42.3101 14.4653 42.1396H15.1826C15.1359 42.2852 15.1053 42.4254 15.091 42.5604C15.0766 42.6917 15.0694 42.855 15.0694 43.0503C15.0694 43.171 15.0981 43.2846 15.1557 43.3911C15.2168 43.4976 15.2959 43.5828 15.393 43.6467C15.4937 43.7107 15.5997 43.7426 15.7112 43.7426H16.6443C16.7917 43.7426 16.9247 43.7337 17.0434 43.716C17.1656 43.7018 17.2627 43.6716 17.3346 43.6254C17.4102 43.5793 17.4479 43.5118 17.4479 43.4231C17.4479 43.3734 17.4371 43.3272 17.4155 43.2846C17.394 43.2456 17.3598 43.2047 17.3131 43.1621C17.2699 43.1231 17.2088 43.0805 17.1297 43.0343C17.0542 42.9846 16.9733 42.9331 16.887 42.8799C16.8043 42.8266 16.7126 42.7663 16.6119 42.6988C16.4789 42.6101 16.3746 42.5302 16.2991 42.4592C16.2236 42.3882 16.1697 42.3172 16.1373 42.2462C16.1085 42.1751 16.0941 42.1006 16.0941 42.0225C16.0941 41.9195 16.1175 41.8077 16.1643 41.687C16.2146 41.5663 16.2865 41.4402 16.38 41.3089C16.5094 41.1314 16.6551 40.9769 16.8169 40.8456C16.9787 40.7107 17.1477 40.6059 17.3239 40.5314C17.5 40.4568 17.669 40.4195 17.8308 40.4195C17.8884 40.4195 17.9441 40.4266 17.998 40.4408C18.0556 40.4515 18.1203 40.4746 18.1922 40.5101C18.2641 40.5456 18.354 40.5988 18.4619 40.6698L18.1706 41.2503C18.1239 41.2219 18.0771 41.197 18.0304 41.1757C17.9837 41.1544 17.9369 41.1385 17.8902 41.1278C17.8434 41.1136 17.7949 41.1065 17.7445 41.1065C17.6978 41.1065 17.6439 41.1189 17.5827 41.1438C17.5216 41.1686 17.4515 41.2059 17.3724 41.2556C17.2681 41.3195 17.1746 41.3905 17.0919 41.4686C17.0128 41.5432 16.9499 41.6178 16.9032 41.6923C16.8564 41.7633 16.833 41.829 16.833 41.8894C16.833 41.9355 16.86 41.987 16.914 42.0438C16.9679 42.097 17.0308 42.1503 17.1027 42.2036C17.1782 42.2533 17.2483 42.2994 17.3131 42.342C17.385 42.3882 17.4605 42.4396 17.5396 42.4965C17.6187 42.5497 17.6978 42.6101 17.7769 42.6775C17.9351 42.8089 18.0538 42.9349 18.1329 43.0556C18.212 43.1763 18.2515 43.2935 18.2515 43.4071C18.2515 43.7337 18.1131 43.9769 17.8362 44.1367C17.563 44.3 17.1674 44.3817 16.6497 44.3817H15.3768Z" fill="#0D0065"/>
<path d="M19.4802 44.3817C19.2969 44.3817 19.1279 44.3604 18.9732 44.3178C18.8186 44.2751 18.6568 44.197 18.4878 44.0834L18.8114 43.5669C18.9049 43.6272 18.9876 43.668 19.0595 43.6894C19.135 43.7107 19.2231 43.7213 19.3238 43.7213C19.4676 43.7213 19.5827 43.6663 19.669 43.5562C19.7589 43.4497 19.8038 43.3148 19.8038 43.1515V40.4675H20.6075V43.1888C20.6075 43.4302 20.5607 43.6396 20.4672 43.8172C20.3737 43.9982 20.2425 44.1367 20.0735 44.2325C19.9081 44.332 19.7104 44.3817 19.4802 44.3817Z" fill="#0D0065"/>
<path d="M23.0856 42.4645C23.1036 42.4645 23.1126 42.4716 23.1126 42.4858V43.0769C23.1126 43.0947 23.1036 43.1036 23.0856 43.1036H21.6078V39.0562H22.4115V42.4645H23.0856Z" fill="#0D0065"/>
<path d="M24.2349 39.7432C24.1234 39.7432 24.0354 39.7095 23.9706 39.642C23.9059 39.571 23.8735 39.4769 23.8735 39.3598C23.8735 39.2391 23.9059 39.145 23.9706 39.0775C24.0354 39.0101 24.1234 38.9763 24.2349 38.9763C24.3464 38.9763 24.4345 39.0101 24.4992 39.0775C24.5603 39.145 24.5909 39.2391 24.5909 39.3598C24.5909 39.4805 24.5585 39.5746 24.4938 39.642C24.4291 39.7095 24.3428 39.7432 24.2349 39.7432ZM25.1518 39.7432C25.0403 39.7432 24.9522 39.7095 24.8875 39.642C24.8228 39.571 24.7904 39.4769 24.7904 39.3598C24.7904 39.2391 24.8228 39.145 24.8875 39.0775C24.9522 39.0101 25.0403 38.9763 25.1518 38.9763C25.2633 38.9763 25.3496 39.0101 25.4107 39.0775C25.4754 39.145 25.5078 39.2391 25.5078 39.3598C25.5078 39.4769 25.4754 39.571 25.4107 39.642C25.346 39.7095 25.2597 39.7432 25.1518 39.7432Z" fill="#0D0065"/>
<path d="M26.754 42.4645C26.7719 42.4645 26.7809 42.4716 26.7809 42.4858V43.0769C26.7809 43.0947 26.7719 43.1036 26.754 43.1036H23.0325C23.0145 43.1036 23.0055 43.0947 23.0055 43.0769V42.4858C23.0055 42.4716 23.0145 42.4645 23.0325 42.4645H23.8037C23.7462 42.397 23.6977 42.326 23.6581 42.2515C23.6221 42.1769 23.5934 42.0988 23.5718 42.0172C23.5538 41.9355 23.5448 41.8503 23.5448 41.7615C23.5448 41.4953 23.606 41.2663 23.7282 41.0746C23.8541 40.8793 24.0339 40.7302 24.2676 40.6272C24.5049 40.5207 24.7889 40.4675 25.1197 40.4675H26.0798V42.4645H26.754ZM25.2761 42.4645V41.1065H25.1359C24.9741 41.1065 24.8357 41.1331 24.7206 41.1864C24.6056 41.2396 24.5175 41.3178 24.4563 41.4207C24.3988 41.5237 24.37 41.6515 24.37 41.8041C24.37 41.9426 24.3988 42.0615 24.4563 42.1609C24.5139 42.2604 24.5984 42.3367 24.7098 42.3899C24.8249 42.4396 24.9633 42.4645 25.1251 42.4645H25.2761Z" fill="#0D0065"/>
<path d="M29.325 43.1036C29.156 43.1036 28.9798 43.0751 28.7964 43.0183C28.613 42.9615 28.4566 42.8905 28.3272 42.8053C28.1618 42.9047 27.9946 42.9793 27.8256 43.029C27.6602 43.0787 27.493 43.1036 27.324 43.1036H26.6983C26.6804 43.1036 26.6714 43.0947 26.6714 43.0769V42.4858C26.6714 42.4716 26.6804 42.4645 26.6983 42.4645H27.2377C27.3204 42.4645 27.4103 42.4556 27.5074 42.4379C27.6044 42.4166 27.6835 42.3917 27.7447 42.3633C27.6907 42.3243 27.635 42.2728 27.5775 42.2089C27.5235 42.1414 27.466 42.0633 27.4049 41.9746C27.2862 41.797 27.182 41.6053 27.0921 41.3994C27.0058 41.1935 26.9464 40.9947 26.9141 40.803C27.0579 40.6858 27.2143 40.5864 27.3833 40.5047C27.5559 40.4195 27.7321 40.3556 27.9119 40.313C28.0917 40.2669 28.2642 40.2438 28.4296 40.2438C28.6849 40.2438 28.9258 40.2704 29.1524 40.3237C29.3789 40.3769 29.5892 40.4568 29.7834 40.5633C29.7834 40.8189 29.7474 41.0621 29.6755 41.2929C29.6036 41.5237 29.5011 41.7314 29.3681 41.916C29.2387 42.097 29.084 42.2444 28.9043 42.358C28.9726 42.3935 29.0463 42.4201 29.1254 42.4379C29.2081 42.4556 29.2962 42.4645 29.3897 42.4645H30.0099C30.0279 42.4645 30.0369 42.4716 30.0369 42.4858V43.0769C30.0369 43.0947 30.0279 43.1036 30.0099 43.1036H29.325ZM28.338 42.0331C28.5501 41.9089 28.7119 41.7598 28.8234 41.5858C28.9384 41.4083 29.0031 41.2059 29.0175 40.9787C28.9384 40.9467 28.8485 40.9237 28.7479 40.9095C28.6472 40.8917 28.5339 40.8828 28.4081 40.8828C28.3326 40.8828 28.2499 40.8917 28.16 40.9095C28.0737 40.9272 27.991 40.9521 27.9119 40.984C27.8364 41.0124 27.7716 41.0462 27.7177 41.0852C27.7537 41.213 27.8022 41.3391 27.8633 41.4633C27.9245 41.584 27.9946 41.6941 28.0737 41.7935C28.1564 41.8893 28.2445 41.9692 28.338 42.0331Z" fill="#0D0065"/>
<path d="M29.9534 43.1036C29.9354 43.1036 29.9264 43.0947 29.9264 43.0769V42.4858C29.9264 42.4716 29.9354 42.4645 29.9534 42.4645H30.6276V39.0562H31.4312V43.1036H29.9534Z" fill="#0D0065"/>
<path d="M32.5106 39.0562H33.3143V43.1036H32.5106V39.0562Z" fill="#0D0065"/>
<path d="M38.4349 39.7432C38.3234 39.7432 38.2353 39.7095 38.1706 39.642C38.1059 39.571 38.0735 39.4769 38.0735 39.3598C38.0735 39.2391 38.1059 39.145 38.1706 39.0775C38.2353 39.0101 38.3234 38.9763 38.4349 38.9763C38.5464 38.9763 38.6345 39.0101 38.6992 39.0775C38.7603 39.145 38.7909 39.2391 38.7909 39.3598C38.7909 39.4805 38.7585 39.5746 38.6938 39.642C38.6291 39.7095 38.5428 39.7432 38.4349 39.7432ZM39.3518 39.7432C39.2403 39.7432 39.1522 39.7095 39.0875 39.642C39.0228 39.571 38.9904 39.4769 38.9904 39.3598C38.9904 39.2391 39.0228 39.145 39.0875 39.0775C39.1522 39.0101 39.2403 38.9763 39.3518 38.9763C39.4633 38.9763 39.5496 39.0101 39.6107 39.0775C39.6754 39.145 39.7078 39.2391 39.7078 39.3598C39.7078 39.4769 39.6754 39.571 39.6107 39.642C39.546 39.7095 39.4597 39.7432 39.3518 39.7432Z" fill="#0D0065"/>
<path d="M41.0888 42.4645C41.1068 42.4645 41.1158 42.4716 41.1158 42.4858V43.0769C41.1158 43.0947 41.1068 43.1036 41.0888 43.1036H40.4093V43.1249C40.4093 43.384 40.3517 43.6077 40.2367 43.7959C40.1216 43.984 39.9508 44.1278 39.7243 44.2272C39.4978 44.3302 39.2191 44.3817 38.8883 44.3817H37.4644C37.1983 44.3817 36.9538 44.3178 36.7309 44.1899C36.5116 44.0621 36.3408 43.8828 36.2185 43.6521C36.0963 43.4249 36.0352 43.171 36.0352 42.8905C36.0352 42.6882 36.0585 42.484 36.1053 42.2781C36.1556 42.0686 36.2239 41.8805 36.3102 41.7136H37.0222C36.9646 41.9018 36.9197 42.1006 36.8873 42.3101C36.855 42.5195 36.8388 42.7148 36.8388 42.8959C36.8388 43.1621 36.9125 43.3698 37.0599 43.5189C37.2073 43.668 37.4231 43.7426 37.7071 43.7426H38.6186C38.8523 43.7426 39.0411 43.7213 39.1849 43.6787C39.3324 43.6361 39.4402 43.5686 39.5085 43.4763C39.5769 43.3876 39.611 43.2722 39.611 43.1302V43.1036H39.1957C39.0699 43.1036 38.9494 43.0911 38.8344 43.0663C38.7229 43.0379 38.6168 42.9953 38.5161 42.9385C38.3184 42.8284 38.162 42.6757 38.0469 42.4805C37.9354 42.2817 37.8797 42.0491 37.8797 41.7828C37.8797 41.6479 37.8941 41.5237 37.9229 41.4101C37.9552 41.2929 38.002 41.1846 38.0631 41.0852C38.1889 40.8864 38.3687 40.7337 38.6024 40.6272C38.8398 40.5207 39.1256 40.4675 39.46 40.4675H40.4146V42.4645H41.0888ZM39.46 42.4645H39.611V41.1065H39.4708C39.3018 41.1065 39.1598 41.1331 39.0447 41.1864C38.9296 41.2361 38.8434 41.3142 38.7858 41.4207C38.7319 41.5237 38.7049 41.655 38.7049 41.8148C38.7049 41.9568 38.7337 42.0775 38.7912 42.1769C38.8523 42.2728 38.9386 42.3456 39.0501 42.3953C39.1652 42.4414 39.3018 42.4645 39.46 42.4645Z" fill="#0D0065"/>
<path d="M41.5739 44.1686C41.4625 44.1686 41.3744 44.1331 41.3097 44.0621C41.2449 43.9947 41.2126 43.9024 41.2126 43.7852C41.2126 43.668 41.2449 43.574 41.3097 43.503C41.3744 43.4355 41.4625 43.4018 41.5739 43.4018C41.6854 43.4018 41.7735 43.4355 41.8382 43.503C41.8994 43.5704 41.9299 43.6645 41.9299 43.7852C41.9299 43.9059 41.8976 44 41.8328 44.0675C41.7681 44.1349 41.6818 44.1686 41.5739 44.1686ZM42.4908 44.1686C42.3794 44.1686 42.2913 44.1331 42.2266 44.0621C42.1618 43.9947 42.1295 43.9024 42.1295 43.7852C42.1295 43.668 42.1618 43.574 42.2266 43.503C42.2913 43.4355 42.3794 43.4018 42.4908 43.4018C42.6023 43.4018 42.6886 43.4355 42.7497 43.503C42.8144 43.574 42.8468 43.668 42.8468 43.7852C42.8468 43.9024 42.8144 43.9947 42.7497 44.0621C42.685 44.1331 42.5987 44.1686 42.4908 44.1686Z" fill="#0D0065"/>
<path d="M41.0353 43.1036C41.0173 43.1036 41.0083 43.0947 41.0083 43.0769V42.4858C41.0083 42.4716 41.0173 42.4645 41.0353 42.4645H41.9791V40.4675H42.7828V43.1036H41.0353Z" fill="#0D0065"/>
<path d="M46.8403 42.4645C46.8582 42.4645 46.8672 42.4716 46.8672 42.4858V43.0769C46.8672 43.0947 46.8582 43.1036 46.8403 43.1036H45.864C45.8461 43.1036 45.8371 43.0947 45.8371 43.0769V42.4858C45.8371 42.4716 45.8461 42.4645 45.864 42.4645H46.8403ZM44.7422 44.3817C44.4977 44.3817 44.2855 44.3621 44.1058 44.3231C43.9296 44.2876 43.7588 44.2219 43.5934 44.126L43.9062 43.5456C44.0536 43.6201 44.1921 43.6716 44.3215 43.7C44.4509 43.732 44.5858 43.7479 44.726 43.7479C44.931 43.7479 45.0874 43.6929 45.1952 43.5828C45.3067 43.4728 45.3624 43.3219 45.3624 43.1302V43.1036H44.8285C44.4438 43.1036 44.1471 42.997 43.9386 42.784C43.7336 42.5675 43.6311 42.2604 43.6311 41.8627C43.6311 41.5609 43.7048 41.3071 43.8523 41.1012C44.0033 40.8917 44.2082 40.7337 44.4671 40.6272C44.726 40.5207 45.0191 40.4675 45.3463 40.4675H46.1661V43.1195C46.1661 43.5243 46.042 43.8349 45.7939 44.0515C45.5458 44.2716 45.1952 44.3817 44.7422 44.3817ZM45.3624 42.4645V41.1065H45.1898C44.9597 41.1065 44.7799 41.1704 44.6505 41.2982C44.5211 41.426 44.4563 41.6071 44.4563 41.8414C44.4563 42.0544 44.4995 42.2124 44.5858 42.3154C44.6757 42.4148 44.8105 42.4645 44.9903 42.4645H45.3624Z" fill="#0D0065"/>
<path d="M50.6486 43.1036C50.494 43.1036 50.3466 43.0698 50.2064 43.0024C50.0661 42.9349 49.9313 42.8355 49.8019 42.7041C49.7012 42.8355 49.5753 42.9349 49.4243 43.0024C49.2769 43.0698 49.1025 43.1036 48.9011 43.1036H46.7869C46.7689 43.1036 46.7599 43.0947 46.7599 43.0769V42.4858C46.7599 42.4716 46.7689 42.4645 46.7869 42.4645H47.4611V40.8828H48.2647V42.4645H48.7232C48.9029 42.4645 49.0342 42.4166 49.1169 42.3207C49.1996 42.2213 49.2409 42.0633 49.2409 41.8467V40.8828H50.0446V41.9107C50.0446 41.9533 50.0428 41.9941 50.0392 42.0331C50.0392 42.0722 50.0356 42.1112 50.0284 42.1503C50.1183 42.2675 50.2064 42.3491 50.2927 42.3953C50.379 42.4414 50.4922 42.4645 50.6325 42.4645H50.9668V40.4675H51.7705V42.4645H52.4716C52.4896 42.4645 52.4986 42.4716 52.4986 42.4858V43.0769C52.4986 43.0947 52.4896 43.1036 52.4716 43.1036H50.6486Z" fill="#0D0065"/>
<path d="M52.9825 39.4769C52.8711 39.4769 52.783 39.4432 52.7182 39.3757C52.6535 39.3047 52.6212 39.2107 52.6212 39.0935C52.6212 38.9728 52.6535 38.8787 52.7182 38.8112C52.783 38.7438 52.8711 38.7101 52.9825 38.7101C53.094 38.7101 53.1821 38.7438 53.2468 38.8112C53.3079 38.8787 53.3385 38.9728 53.3385 39.0935C53.3385 39.2142 53.3061 39.3083 53.2414 39.3757C53.1767 39.4432 53.0904 39.4769 52.9825 39.4769ZM53.8994 39.4769C53.788 39.4769 53.6999 39.4432 53.6351 39.3757C53.5704 39.3047 53.5381 39.2107 53.5381 39.0935C53.5381 38.9728 53.5704 38.8787 53.6351 38.8112C53.6999 38.7438 53.788 38.7101 53.8994 38.7101C54.0109 38.7101 54.0972 38.7438 54.1583 38.8112C54.223 38.8787 54.2554 38.9728 54.2554 39.0935C54.2554 39.2107 54.223 39.3047 54.1583 39.3757C54.0936 39.4432 54.0073 39.4769 53.8994 39.4769Z" fill="#0D0065"/>
<path d="M52.4174 43.1036C52.3994 43.1036 52.3904 43.0947 52.3904 43.0769V42.4858C52.3904 42.4716 52.3994 42.4645 52.4174 42.4645H53.2534V40.4675H54.057V42.4645H54.866C54.884 42.4645 54.893 42.4716 54.893 42.4858V43.0769C54.893 43.0947 54.884 43.1036 54.866 43.1036H52.4174Z" fill="#0D0065"/>
<path d="M54.8139 43.1036C54.7959 43.1036 54.7869 43.0947 54.7869 43.0769V42.4858C54.7869 42.4716 54.7959 42.4645 54.8139 42.4645H55.4881V39.0562H56.2917V42.4645H56.9929C57.0108 42.4645 57.0198 42.4716 57.0198 42.4858V43.0769C57.0198 43.0947 57.0108 43.1036 56.9929 43.1036H54.8139Z" fill="#0D0065"/>
<path d="M56.9365 43.1036C56.9186 43.1036 56.9096 43.0947 56.9096 43.0769V42.4858C56.9096 42.4716 56.9186 42.4645 56.9365 42.4645H57.6107V39.0562H58.4143V43.1036H56.9365Z" fill="#0D0065"/>
</svg>
