<svg width="30" height="29" viewBox="0 0 30 29" fill="none" xmlns="http://www.w3.org/2000/svg">
<rect x="0.666016" width="29" height="29" rx="14.5" fill="white" fill-opacity="0.1"/>
<g clip-path="url(#clip0_23_570)">
<g clip-path="url(#clip1_23_570)">
<g clip-path="url(#clip2_23_570)">
<path d="M21.5958 17.7648C20.9893 17.6179 20.4249 17.3329 19.9468 16.9319C19.4686 16.5309 19.0896 16.0248 18.8394 15.4531V15.4451C18.7859 15.3578 18.7521 15.2599 18.7405 15.1582C18.729 15.0565 18.7399 14.9535 18.7724 14.8564C18.8984 14.5566 19.3161 14.4267 19.593 14.3387C19.6619 14.3167 19.7269 14.2957 19.7789 14.2757C20.2786 14.0759 20.3785 13.876 20.3785 13.7371C20.3655 13.6516 20.3273 13.572 20.2687 13.5084C20.2101 13.4448 20.1338 13.4002 20.0497 13.3803C19.9754 13.3503 19.896 13.335 19.8159 13.3353C19.7454 13.3344 19.6756 13.3483 19.611 13.3763C19.4156 13.4752 19.2027 13.5346 18.9843 13.5512C18.8587 13.5541 18.7361 13.5131 18.6375 13.4352C18.6435 13.3243 18.6505 13.2094 18.6585 13.0874V13.0444C18.7845 12.1613 18.7308 11.2618 18.5006 10.4C18.2288 9.78059 17.7804 9.25507 17.2116 8.88907C16.6428 8.52308 15.9787 8.33283 15.3024 8.34212H15.0386C14.3633 8.33343 13.7004 8.52401 13.1328 8.89001C12.5652 9.25602 12.1181 9.78122 11.8474 10.4C11.6172 11.2611 11.5635 12.16 11.6895 13.0424C11.6981 13.1757 11.7061 13.3063 11.7135 13.4342C11.6048 13.5194 11.4684 13.5611 11.3307 13.5512C11.0991 13.5414 10.8724 13.4818 10.6661 13.3763C10.6154 13.3539 10.5605 13.343 10.5051 13.3443C10.3912 13.3397 10.2787 13.3709 10.1834 13.4334C10.088 13.496 10.0146 13.5868 9.97345 13.6931C9.91948 13.9749 10.3232 14.1798 10.5681 14.2767C10.6201 14.2977 10.685 14.3177 10.754 14.3397C11.0308 14.4277 11.4486 14.5596 11.5745 14.8574C11.6071 14.9545 11.618 15.0575 11.6064 15.1592C11.5949 15.2609 11.5611 15.3588 11.5076 15.4461V15.4541C11.3268 15.8483 11.0913 16.2151 10.808 16.5435C10.291 17.1861 9.55904 17.6202 8.74714 17.7658C8.70912 17.7723 8.67486 17.7927 8.65089 17.8229C8.62692 17.8531 8.61494 17.8912 8.61722 17.9297C8.61885 17.9589 8.62561 17.9877 8.63721 18.0146C8.75214 18.2845 9.33081 18.5063 10.3103 18.6573C10.4022 18.6712 10.4402 18.8212 10.4942 19.065C10.5151 19.165 10.5381 19.2649 10.5681 19.3649C10.5782 19.4113 10.6051 19.4523 10.6437 19.48C10.6823 19.5077 10.7298 19.5201 10.777 19.5148C10.8709 19.5095 10.9642 19.4961 11.0558 19.4748C11.2972 19.4222 11.5434 19.3944 11.7904 19.3918C11.9679 19.3923 12.1451 19.4074 12.3201 19.4368C12.6899 19.5304 13.0339 19.7059 13.3265 19.9505C13.8197 20.3739 14.4403 20.6202 15.0895 20.6501H15.1555H15.2554C15.905 20.6201 16.5259 20.3739 17.0194 19.9505C17.3118 19.706 17.6554 19.5304 18.0249 19.4368C18.1999 19.4074 18.3771 19.3924 18.5546 19.3918C18.8014 19.393 19.0475 19.4191 19.2892 19.4698C19.3809 19.4898 19.4742 19.5015 19.568 19.5048H19.583C19.6274 19.5084 19.6716 19.4957 19.7073 19.469C19.743 19.4423 19.7678 19.4035 19.7769 19.3599C19.8069 19.2599 19.8298 19.16 19.8518 19.06C19.9048 18.8172 19.9438 18.6682 20.0357 18.6543C21.0152 18.5033 21.5938 18.2805 21.7078 18.0126C21.7198 17.9854 21.7269 17.9563 21.7288 17.9267C21.7304 17.888 21.7178 17.8502 21.6933 17.8203C21.6687 17.7904 21.634 17.7706 21.5958 17.7648Z" fill="white"/>
</g>
</g>
</g>
<defs>
<clipPath id="clip0_23_570">
<rect width="13.13" height="12.31" fill="white" transform="translate(8.60596 8.34009)"/>
</clipPath>
<clipPath id="clip1_23_570">
<rect width="13.13" height="12.31" fill="white" transform="translate(8.60596 8.34009)"/>
</clipPath>
<clipPath id="clip2_23_570">
<rect width="13.1115" height="12.31" fill="white" transform="translate(8.61523 8.34009)"/>
</clipPath>
</defs>
</svg>
