<svg width="30" height="29" viewBox="0 0 30 29" fill="none" xmlns="http://www.w3.org/2000/svg">
<rect x="0.666016" width="29" height="29" rx="14.5" fill="white" fill-opacity="0.1"/>
<g clip-path="url(#clip0_23_575)">
<g clip-path="url(#clip1_23_575)">
<path d="M15.1666 8.25C18.6185 8.25 21.4166 11.0481 21.4166 14.5C21.4166 17.9519 18.6185 20.75 15.1666 20.75C14.0621 20.7518 12.977 20.4595 12.0229 19.9031L8.91913 20.75L9.76413 17.645C9.20732 16.6905 8.91479 15.605 8.91663 14.5C8.91663 11.0481 11.7148 8.25 15.1666 8.25ZM13.0366 11.5625L12.9116 11.5675C12.8307 11.5724 12.7516 11.5937 12.6791 11.63C12.6113 11.6684 12.5494 11.7164 12.4954 11.7725C12.4204 11.8431 12.3779 11.9044 12.3323 11.9637C12.1011 12.2643 11.9766 12.6333 11.9785 13.0125C11.9798 13.3187 12.0598 13.6169 12.1848 13.8956C12.4404 14.4594 12.861 15.0562 13.416 15.6094C13.5498 15.7425 13.681 15.8762 13.8223 16.0006C14.5119 16.6078 15.3337 17.0456 16.2223 17.2794L16.5773 17.3337C16.6929 17.34 16.8085 17.3313 16.9248 17.3256C17.1068 17.3162 17.2845 17.2669 17.4454 17.1813C17.5272 17.1391 17.6071 17.0932 17.6848 17.0437C17.6848 17.0437 17.7116 17.0262 17.7629 16.9875C17.8473 16.925 17.8991 16.8806 17.9691 16.8075C18.021 16.7537 18.066 16.6906 18.1004 16.6188C18.1491 16.5169 18.1979 16.3225 18.2179 16.1606C18.2329 16.0369 18.2285 15.9694 18.2266 15.9275C18.2241 15.8606 18.1685 15.7913 18.1079 15.7619L17.7441 15.5988C17.7441 15.5988 17.2004 15.3619 16.8679 15.2106C16.8331 15.1954 16.7958 15.1867 16.7579 15.185C16.7151 15.1806 16.6719 15.1854 16.6312 15.1991C16.5904 15.2128 16.5531 15.2351 16.5216 15.2644C16.5185 15.2631 16.4766 15.2988 16.0248 15.8463C15.9988 15.8811 15.9631 15.9074 15.9221 15.9219C15.8812 15.9364 15.8368 15.9383 15.7948 15.9275C15.754 15.9166 15.7142 15.9028 15.6754 15.8863C15.5979 15.8538 15.571 15.8412 15.5179 15.8187C15.1592 15.6622 14.8271 15.4507 14.5335 15.1919C14.4548 15.1231 14.3816 15.0481 14.3066 14.9756C14.0608 14.7401 13.8465 14.4738 13.6691 14.1831L13.6323 14.1237C13.6058 14.0839 13.5844 14.0408 13.5685 13.9956C13.5448 13.9037 13.6066 13.83 13.6066 13.83C13.6066 13.83 13.7585 13.6637 13.8291 13.5737C13.8979 13.4862 13.956 13.4013 13.9935 13.3406C14.0673 13.2219 14.0904 13.1 14.0516 13.0056C13.8766 12.5781 13.6954 12.1525 13.5091 11.73C13.4723 11.6463 13.3629 11.5862 13.2635 11.5744C13.2298 11.5706 13.196 11.5669 13.1623 11.5644C13.0783 11.5602 12.9942 11.561 12.9104 11.5669L13.0366 11.5625Z" fill="white"/>
</g>
</g>
<defs>
<clipPath id="clip0_23_575">
<rect width="15" height="15" fill="white" transform="translate(7.66602 7)"/>
</clipPath>
<clipPath id="clip1_23_575">
<rect width="15" height="15" fill="white" transform="translate(7.66602 7)"/>
</clipPath>
</defs>
</svg>
