<svg width="30" height="29" viewBox="0 0 30 29" fill="none" xmlns="http://www.w3.org/2000/svg">
<rect x="0.666016" width="29" height="29" rx="14.5" fill="white" fill-opacity="0.1"/>
<g clip-path="url(#clip0_23_559)">
<g clip-path="url(#clip1_23_559)">
<g clip-path="url(#clip2_23_559)">
<path d="M21.8483 10.3625C21.3487 10.5838 20.8188 10.729 20.2762 10.7932C20.8458 10.4505 21.2719 9.91289 21.4755 9.28006C20.9376 9.59848 20.3496 9.82323 19.7365 9.94469C19.3238 9.50534 18.7777 9.21437 18.1828 9.11688C17.5879 9.01939 16.9775 9.12082 16.4462 9.40546C15.9148 9.6901 15.4922 10.142 15.2437 10.6913C14.9953 11.2405 14.935 11.8563 15.072 12.4433C13.984 12.3881 12.9197 12.1047 11.9483 11.6116C10.9769 11.1184 10.12 10.4266 9.43317 9.5809C9.08284 10.1838 8.97547 10.8975 9.13293 11.5767C9.2904 12.256 9.70085 12.8497 10.2807 13.2369C9.84581 13.2225 9.42063 13.1046 9.04039 12.8931V12.927C9.04083 13.5595 9.26001 14.1724 9.66077 14.6616C10.0615 15.1509 10.6192 15.4865 11.2392 15.6116C11.0041 15.6765 10.7615 15.7101 10.5176 15.7115C10.3444 15.7115 10.1717 15.6945 10.0019 15.6605C10.1769 16.204 10.5175 16.6792 10.9759 17.0197C11.4342 17.3601 11.9875 17.5489 12.5584 17.5595C11.5889 18.3193 10.3922 18.7315 9.16032 18.7298C8.94049 18.7283 8.72093 18.7143 8.50269 18.6879C9.75435 19.4935 11.2118 19.921 12.7004 19.9192C13.7252 19.9264 14.7412 19.7298 15.6894 19.3409C16.6376 18.952 17.4991 18.3786 18.2238 17.6539C18.9485 16.9292 19.5219 16.0678 19.9108 15.1196C20.2997 14.1713 20.4962 13.1553 20.4891 12.1305L20.4801 11.7757C21.0178 11.3912 21.4814 10.9124 21.8483 10.3625Z" fill="white"/>
</g>
</g>
</g>
<defs>
<clipPath id="clip0_23_559">
<rect width="13.36" height="10.84" fill="white" transform="translate(8.49597 9.08008)"/>
</clipPath>
<clipPath id="clip1_23_559">
<rect width="13.36" height="10.84" fill="white" transform="translate(8.49597 9.08008)"/>
</clipPath>
<clipPath id="clip2_23_559">
<rect width="13.3446" height="10.84" fill="white" transform="translate(8.50366 9.08008)"/>
</clipPath>
</defs>
</svg>
